# xmcd
# 
# Track frame offsets:
#     150
#     14990
#     34009
#     51568
#     77103
#     98184
#     124448
#     147351
#     155338
#     173800
#     183250
#     205600
#     217150
# 
# Disc length: 3132
# 
# Revision: 0
# Processed by: cddbd v1.5.2PL0 Copyright (c) Steve Scherf et al.
# Submitted via: BonkEnc v1.0
# 
DISCID=c10c3a0d
DTITLE=Ralph de Jongh - New Blues
DYEAR=2006
DGENRE=Blues
TTITLE0=Dust my broom
TTITLE1=Preaching blues
TTITLE2=Don't need it anymore
TTITLE3=Brainmood
TTITLE4=Me and the devil blues
TTITLE5=Sweet home Chicago
TTITLE6=Doogie
TTITLE7=Amazing
TTITLE8=Everybody got to go
TTITLE9=Say goodbye
TTITLE10=Shine
TTITLE11=County Jail
TTITLE12=Kansas city
EXTD=
EXTT0=
EXTT1=
EXTT2=
EXTT3=
EXTT4=
EXTT5=
EXTT6=
EXTT7=
EXTT8=
EXTT9=
EXTT10=
EXTT11=
EXTT12=
PLAYORDER=
